# xmcd
#
# Track frame offsets:
#	150
#	16788
#	31981
#	53633
#	58320
#	105151
#	120204
#	144612
#	162780
#	185680
#	194664
#
# Disc length: 2916 seconds
#
# Revision: 7
# Processed by: cddbd v1.5.2PL0 Copyright (c) Steve Scherf et al.
# Submitted via: dBpowerAMP V4.0
#
DISCID=8c0b620b
DTITLE=Jerry Douglas - Lookout For Hope
DYEAR=2002
DGENRE=Bluegrass
TTITLE0=Little Martha
TTITLE1=Patrick Meets The Brickbats
TTITLE2=Footsteps Fall
TTITLE3=Monkey Let The Hogs Out
TTITLE4=Lookout For Hope
TTITLE5=Cave Bop
TTITLE6=Senia's Lament
TTITLE7=The Wild Rumpus
TTITLE8=The Sinking Ship
TTITLE9=In The Sweet By and By
TTITLE10=The Suit
EXTD=
EXTT0=
EXTT1=
EXTT2=
EXTT3=
EXTT4=
EXTT5=
EXTT6=
EXTT7=
EXTT8=
EXTT9=
EXTT10=
PLAYORDER=
